<svg xmlns="http://www.w3.org/2000/svg" viewBox="0 0 720 350" width="720" height="350" role="img" aria-labelledby="title"><title id="title">NPNトランジスタによるLED低側駆動</title><defs><marker id="arrow" markerWidth="7" markerHeight="7" refX="6" refY="3.5" orient="auto"><path d="M0 0L7 3.5L0 7z" fill="#205c48" stroke="none"/></marker></defs><rect width="720" height="350" fill="#f1f6f2" rx="7"/><g stroke="#205c48" stroke-width="2.2" stroke-linecap="round" stroke-linejoin="round" fill="none"><text x="30" y="30" font-size="19" fill="#205c48" text-anchor="start">NPN 低側スイッチ</text><text x="472" y="55" font-size="16" fill="#205c48" text-anchor="start">＋5 V</text><path d="M500 65L500 73.0" /><rect x="490" y="73.0" width="20" height="44"/><path d="M500 117.0L500 125" /><text x="523" y="100.0" font-size="16" fill="#205c48" text-anchor="start">620 Ω</text><path d="M500 125L500 142" /><path d="M488 142h24l-12 21zM487 165h26M500 165v15" /><path d="M520 143l16-12m-7 0h7v7M525 157l16-12m-7 0h7v7" /><text x="558" y="158" font-size="15" fill="#205c48" text-anchor="start">LED</text><path d="M500 180L500 198" /><path d="M500 198L462 220" /><path d="M462 210L462 266" /><path d="M462 248L500 275" marker-end="url(#arrow)"/><path d="M500 275L500 292" /><path d="M500 292v10m-17 0h34m-28 7h22m-16 7h10" /><text x="520" y="220" font-size="16" fill="#205c48" text-anchor="start">C</text><text x="520" y="284" font-size="16" fill="#205c48" text-anchor="start">E</text><text x="436" y="207" font-size="16" fill="#205c48" text-anchor="start">B</text><text x="561" y="244" font-size="17" fill="#205c48" text-anchor="start">Q1 NPN</text><text x="34" y="210" font-size="16" fill="#205c48" text-anchor="start">3.3 V制御</text><path d="M40 237L142.5 237" /><rect x="142.5" y="227" width="50" height="20"/><path d="M192.5 237L295 237" /><text x="167.5" y="214" font-size="16" fill="#205c48" text-anchor="middle">RB 2.2 kΩ</text><path d="M295 237L462 237" /><circle cx="340" cy="237" r="4" fill="#205c48"/><path d="M340 237L340 250.5" /><rect x="330" y="250.5" width="20" height="44"/><path d="M340 294.5L340 308" /><text x="363" y="277.5" font-size="16" fill="#205c48" text-anchor="start">100 kΩ</text><path d="M340 308v10m-17 0h34m-28 7h22m-16 7h10" /><text x="29" y="320" font-size="14" fill="#64786b" text-anchor="start">制御源と負荷電源のGNDを共通にする</text></g><style>text{stroke:none;font-family:'Noto Sans JP',sans-serif}.caption{fill:#64786b}</style></svg>