<svg xmlns="http://www.w3.org/2000/svg" viewBox="0 0 720 350" width="720" height="350" role="img" aria-labelledby="title"><title id="title">正弦波と矩形波の周期と電圧</title><defs><marker id="arrow" markerWidth="7" markerHeight="7" refX="6" refY="3.5" orient="auto"><path d="M0 0L7 3.5L0 7z" fill="#205c48" stroke="none"/></marker></defs><rect width="720" height="350" fill="#f1f6f2" rx="7"/><g stroke="#205c48" stroke-width="2.2" stroke-linecap="round" stroke-linejoin="round" fill="none"><text x="25" y="30" font-size="19" fill="#205c48" text-anchor="start">波形の基本</text><text x="25" y="118" font-size="17" fill="#205c48" text-anchor="start">正弦波</text><path d="M125 118L670 118" /><path d="M125 163L125 63" /><text x="677" y="125" font-size="16" fill="#205c48" text-anchor="start">t</text><text x="25" y="250" font-size="17" fill="#205c48" text-anchor="start">矩形波</text><path d="M125 250L670 250" /><path d="M125 295L125 195" /><text x="677" y="257" font-size="16" fill="#205c48" text-anchor="start">t</text><path d="M130 118C160 38 190 38 220 118S280 198 310 118 370 38 400 118 460 198 490 118 550 38 580 118 640 198 670 118" /><path d="M130 250h35v-50h90v50h90v-50h90v50h90v-50h90v50h55" /><path d="M175 50L355 50" /><path d="M175 43L175 57" /><path d="M355 43L355 57" /><text x="258" y="41" font-size="17" fill="#205c48" text-anchor="middle">T</text><text x="175" y="326" font-size="18" fill="#205c48" text-anchor="start">f = 1/T　　Vpp = 最大値 − 最小値</text></g><style>text{stroke:none;font-family:'Noto Sans JP',sans-serif}.caption{fill:#64786b}</style></svg>